<mxfile host="65bd71144e">
    <diagram id="TgEretIzjHx_KYeVRnot" name="classDigramm">
        <mxGraphModel dx="5323" dy="2084" grid="1" gridSize="10" guides="1" tooltips="1" connect="1" arrows="1" fold="1" page="1" pageScale="1" pageWidth="827" pageHeight="1169" math="0" shadow="0">
            <root>
                <mxCell id="0"/>
                <mxCell id="1" parent="0"/>
                <mxCell id="192" value="&lt;font style=&quot;font-size: 18px;&quot;&gt;&amp;lt;&amp;lt;Functional Component&amp;gt;&amp;gt;&lt;br&gt;ReactHook&lt;/font&gt;" style="swimlane;fontStyle=1;align=center;verticalAlign=top;childLayout=stackLayout;horizontal=1;startSize=60;horizontalStack=0;resizeParent=1;resizeParentMax=0;resizeLast=0;collapsible=1;marginBottom=0;whiteSpace=wrap;html=1;" parent="1" vertex="1">
                    <mxGeometry x="-1609" y="274" width="530" height="440" as="geometry"/>
                </mxCell>
                <mxCell id="193" value="&amp;nbsp; - props = {&amp;nbsp; type : TYPE}&amp;nbsp;" style="text;html=1;align=left;verticalAlign=middle;resizable=0;points=[];autosize=1;strokeColor=none;fillColor=none;fontSize=18;" parent="192" vertex="1">
                    <mxGeometry y="60" width="530" height="40" as="geometry"/>
                </mxCell>
                <mxCell id="194" value="&lt;font style=&quot;font-size: 18px;&quot;&gt;&amp;nbsp; - input : State = { value=&quot;&quot; : String,&amp;nbsp; isTouched=false : Boolean}&lt;/font&gt;" style="text;html=1;align=left;verticalAlign=middle;resizable=0;points=[];autosize=1;strokeColor=none;fillColor=none;fontSize=24;" parent="192" vertex="1">
                    <mxGeometry y="100" width="530" height="40" as="geometry"/>
                </mxCell>
                <mxCell id="195" value="&lt;font style=&quot;font-size: 18px;&quot;&gt;&lt;font style=&quot;&quot;&gt;|&lt;/font&gt; - hasError : Boolean&amp;nbsp;&lt;br&gt;&lt;br&gt;&amp;nbsp; - enteredInputIsValid : Boolean&lt;br&gt;&lt;/font&gt;" style="text;html=1;align=left;verticalAlign=middle;resizable=0;points=[];autosize=1;strokeColor=none;fillColor=none;fontSize=18;" parent="192" vertex="1">
                    <mxGeometry y="140" width="530" height="80" as="geometry"/>
                </mxCell>
                <mxCell id="196" value="&amp;nbsp; - message : String" style="text;html=1;align=left;verticalAlign=middle;resizable=0;points=[];autosize=1;strokeColor=none;fillColor=none;fontSize=18;" parent="192" vertex="1">
                    <mxGeometry y="220" width="530" height="40" as="geometry"/>
                </mxCell>
                <mxCell id="197" value="&lt;font style=&quot;font-size: 18px;&quot;&gt;| - inputClasses : String&lt;br&gt;&amp;nbsp; &amp;nbsp;&lt;br&gt;&lt;/font&gt;" style="text;whiteSpace=wrap;html=1;fontSize=24;" parent="192" vertex="1">
                    <mxGeometry y="260" width="530" height="50" as="geometry"/>
                </mxCell>
                <mxCell id="198" value="" style="line;strokeWidth=1;fillColor=none;align=left;verticalAlign=middle;spacingTop=-1;spacingLeft=3;spacingRight=3;rotatable=0;labelPosition=right;points=[];portConstraint=eastwest;strokeColor=inherit;" parent="192" vertex="1">
                    <mxGeometry y="310" width="530" height="50" as="geometry"/>
                </mxCell>
                <mxCell id="199" value="&amp;nbsp;- inputOnBlurHandler (event: Event)&amp;nbsp;&lt;br&gt;&lt;br&gt;&amp;nbsp;- inputOnChangeHandler (event: Event)" style="text;html=1;align=left;verticalAlign=middle;resizable=0;points=[];autosize=1;strokeColor=none;fillColor=none;fontSize=18;" parent="192" vertex="1">
                    <mxGeometry y="360" width="530" height="80" as="geometry"/>
                </mxCell>
                <mxCell id="200" value="&lt;span style=&quot;font-weight: 700;&quot;&gt;&amp;lt;&amp;lt;Functional Component&amp;gt;&amp;gt;&lt;br&gt;Dispatch&lt;br&gt;&lt;/span&gt;" style="swimlane;fontStyle=0;align=center;verticalAlign=top;childLayout=stackLayout;horizontal=1;startSize=55;horizontalStack=0;resizeParent=1;resizeParentMax=0;resizeLast=0;collapsible=0;marginBottom=0;html=1;fontSize=18;" parent="1" vertex="1">
                    <mxGeometry x="-1327" y="864" width="700" height="120" as="geometry"/>
                </mxCell>
                <mxCell id="201" value="" style="line;strokeWidth=1;fillColor=none;align=left;verticalAlign=middle;spacingTop=-1;spacingLeft=3;spacingRight=3;rotatable=0;labelPosition=right;points=[];portConstraint=eastwest;fontSize=18;" parent="200" vertex="1">
                    <mxGeometry y="55" width="700" height="25" as="geometry"/>
                </mxCell>
                <mxCell id="202" value="&amp;nbsp;+ inputStateReducer (state: State, action:Action) : {value:String, isTouched:Boolean}&amp;nbsp;" style="text;html=1;align=left;verticalAlign=middle;resizable=0;points=[];autosize=1;strokeColor=none;fillColor=none;fontSize=18;" parent="200" vertex="1">
                    <mxGeometry y="80" width="700" height="40" as="geometry"/>
                </mxCell>
                <mxCell id="203" value="Action" style="swimlane;fontStyle=0;align=center;verticalAlign=top;childLayout=stackLayout;horizontal=1;startSize=55;horizontalStack=0;resizeParent=1;resizeParentMax=0;resizeLast=0;collapsible=0;marginBottom=0;html=1;fontSize=18;" parent="1" vertex="1">
                    <mxGeometry x="-927" y="1064" width="260" height="143" as="geometry"/>
                </mxCell>
                <mxCell id="204" value="&amp;nbsp;- value : String&lt;br&gt;&lt;br&gt;&amp;nbsp;- type : String" style="text;html=1;align=left;verticalAlign=middle;resizable=0;points=[];autosize=1;strokeColor=none;fillColor=none;fontSize=18;" parent="203" vertex="1">
                    <mxGeometry y="55" width="260" height="80" as="geometry"/>
                </mxCell>
                <mxCell id="205" value="" style="line;strokeWidth=1;fillColor=none;align=left;verticalAlign=middle;spacingTop=-1;spacingLeft=3;spacingRight=3;rotatable=0;labelPosition=right;points=[];portConstraint=eastwest;fontSize=18;" parent="203" vertex="1">
                    <mxGeometry y="135" width="260" height="8" as="geometry"/>
                </mxCell>
                <mxCell id="206" value="" style="endArrow=none;startArrow=none;endFill=0;startFill=0;endSize=8;html=1;verticalAlign=bottom;labelBackgroundColor=none;strokeWidth=3;fontSize=18;exitX=0.5;exitY=0;exitDx=0;exitDy=0;entryX=0.502;entryY=1.032;entryDx=0;entryDy=0;entryPerimeter=0;" parent="1" source="203" target="202" edge="1">
                    <mxGeometry width="160" relative="1" as="geometry">
                        <mxPoint x="-1667" y="954" as="sourcePoint"/>
                        <mxPoint x="-1507" y="954" as="targetPoint"/>
                    </mxGeometry>
                </mxCell>
                <mxCell id="207" value="1" style="text;html=1;align=center;verticalAlign=middle;resizable=0;points=[];autosize=1;strokeColor=none;fillColor=none;fontSize=18;" parent="1" vertex="1">
                    <mxGeometry x="-967" y="824" width="30" height="40" as="geometry"/>
                </mxCell>
                <mxCell id="208" value="1" style="text;html=1;align=center;verticalAlign=middle;resizable=0;points=[];autosize=1;strokeColor=none;fillColor=none;fontSize=18;" parent="1" vertex="1">
                    <mxGeometry x="-821" y="1024" width="30" height="40" as="geometry"/>
                </mxCell>
                <mxCell id="209" value="" style="endArrow=none;startArrow=none;endFill=0;startFill=0;endSize=8;html=1;verticalAlign=bottom;labelBackgroundColor=none;strokeWidth=3;fontSize=18;exitX=0.5;exitY=0;exitDx=0;exitDy=0;entryX=0.5;entryY=1;entryDx=0;entryDy=0;" parent="1" source="200" target="192" edge="1">
                    <mxGeometry width="160" relative="1" as="geometry">
                        <mxPoint x="-1557" y="772.72" as="sourcePoint"/>
                        <mxPoint x="-1437" y="614" as="targetPoint"/>
                    </mxGeometry>
                </mxCell>
                <mxCell id="210" value="1" style="text;html=1;align=center;verticalAlign=middle;resizable=0;points=[];autosize=1;strokeColor=none;fillColor=none;fontSize=18;" parent="1" vertex="1">
                    <mxGeometry x="-1437" y="674" width="30" height="40" as="geometry"/>
                </mxCell>
                <mxCell id="211" value="&lt;div style=&quot;color: rgb(212, 212, 212); background-color: rgb(30, 30, 30); font-family: Consolas, &amp;quot;Courier New&amp;quot;, monospace; font-weight: normal; font-size: 14px; line-height: 19px;&quot;&gt;&lt;br&gt;&lt;/div&gt;" style="text;whiteSpace=wrap;html=1;fontSize=18;" parent="1" vertex="1">
                    <mxGeometry x="-1697" y="604" width="170" height="40" as="geometry"/>
                </mxCell>
                <mxCell id="212" value="&lt;div style=&quot;color: rgb(212, 212, 212); background-color: rgb(30, 30, 30); font-family: Consolas, &amp;quot;Courier New&amp;quot;, monospace; font-weight: normal; font-size: 14px; line-height: 19px;&quot;&gt;&lt;br&gt;&lt;/div&gt;" style="text;whiteSpace=wrap;html=1;fontSize=18;" parent="1" vertex="1">
                    <mxGeometry x="-1697" y="574" width="170" height="40" as="geometry"/>
                </mxCell>
                <mxCell id="213" value="&amp;lt;&amp;lt;use&amp;gt;&amp;gt;" style="text;html=1;align=center;verticalAlign=middle;resizable=0;points=[];autosize=1;strokeColor=none;fillColor=none;fontSize=18;rotation=25;" parent="1" vertex="1">
                    <mxGeometry x="-1176" y="764" width="90" height="40" as="geometry"/>
                </mxCell>
                <mxCell id="214" style="edgeStyle=none;html=1;entryX=1.014;entryY=0.489;entryDx=0;entryDy=0;entryPerimeter=0;fontSize=18;dashed=1;dashPattern=8 8;endArrow=none;endFill=0;" parent="1" source="215" target="199" edge="1">
                    <mxGeometry relative="1" as="geometry"/>
                </mxCell>
                <mxCell id="215" value="&lt;div&gt;&amp;nbsp; const inputChangeHandler = (event) =&amp;gt; {&lt;/div&gt;&lt;div&gt;&amp;nbsp; &amp;nbsp; dispatch({&lt;/div&gt;&lt;div&gt;&amp;nbsp; &amp;nbsp; &amp;nbsp; type: &quot;INPUT&quot;,&lt;/div&gt;&lt;div&gt;&amp;nbsp; &amp;nbsp; &amp;nbsp; value: event.target.value,&lt;/div&gt;&lt;div&gt;&amp;nbsp; &amp;nbsp; });&lt;/div&gt;&lt;div&gt;&amp;nbsp; };&lt;/div&gt;&lt;div&gt;&lt;br&gt;&lt;/div&gt;&lt;div&gt;&amp;nbsp; const inputOnBlurHandler = (event) =&amp;gt; {&lt;/div&gt;&lt;div&gt;&amp;nbsp; &amp;nbsp; dispatch({&lt;/div&gt;&lt;div&gt;&amp;nbsp; &amp;nbsp; &amp;nbsp; type: &quot;BLUR&quot;,&lt;/div&gt;&lt;div&gt;&amp;nbsp; &amp;nbsp; });&lt;/div&gt;&lt;div&gt;&amp;nbsp; };&lt;/div&gt;&lt;div&gt;&lt;br&gt;&lt;/div&gt;" style="shape=note2;boundedLbl=1;whiteSpace=wrap;html=1;size=25;verticalAlign=top;align=left;fontSize=18;" parent="1" vertex="1">
                    <mxGeometry x="-938" y="404" width="370" height="300" as="geometry"/>
                </mxCell>
                <mxCell id="216" style="edgeStyle=none;html=1;entryX=0.872;entryY=-0.011;entryDx=0;entryDy=0;entryPerimeter=0;dashed=1;dashPattern=8 8;fontSize=18;endArrow=none;endFill=0;" parent="1" source="217" target="192" edge="1">
                    <mxGeometry relative="1" as="geometry"/>
                </mxCell>
                <mxCell id="217" value="&lt;div&gt;&lt;div&gt;&amp;nbsp;&amp;nbsp; const {status:enteredInputIsValid, message} = validtionFun(input.value);&lt;/div&gt;&lt;div&gt;&amp;nbsp;&lt;/div&gt;&lt;div&gt;&amp;nbsp; &amp;nbsp;const hasError =&amp;nbsp; !enteredInputIsValid&amp;nbsp; &amp;amp;&amp;amp;&amp;nbsp; input.isTouched;&lt;/div&gt;&lt;div&gt;&lt;br&gt;&lt;/div&gt;&lt;div&gt;&amp;nbsp; &amp;nbsp;const inputClasses =&amp;nbsp; hasError&amp;nbsp; ?&amp;nbsp; &quot;invalid&quot;&amp;nbsp; :&amp;nbsp; &quot;&quot;;&lt;/div&gt;&lt;/div&gt;" style="shape=note2;boundedLbl=1;whiteSpace=wrap;html=1;size=25;verticalAlign=top;align=left;fontSize=18;" parent="1" vertex="1">
                    <mxGeometry x="-1059" y="154" width="650" height="170" as="geometry"/>
                </mxCell>
                <mxCell id="218" value="1" style="text;html=1;align=center;verticalAlign=middle;resizable=0;points=[];autosize=1;strokeColor=none;fillColor=none;fontSize=18;" parent="1" vertex="1">
                    <mxGeometry x="-987" y="984" width="30" height="40" as="geometry"/>
                </mxCell>
                <mxCell id="219" style="edgeStyle=none;html=1;fontSize=18;endArrow=none;endFill=0;" parent="1" source="220" target="223" edge="1">
                    <mxGeometry relative="1" as="geometry"/>
                </mxCell>
                <mxCell id="220" value="&amp;lt;&amp;lt;enumeration&amp;gt;&amp;gt;&lt;br&gt;&lt;b&gt;TYPE&lt;/b&gt;" style="swimlane;fontStyle=0;align=center;verticalAlign=top;childLayout=stackLayout;horizontal=1;startSize=60;horizontalStack=0;resizeParent=1;resizeParentMax=0;resizeLast=0;collapsible=0;marginBottom=0;html=1;fontSize=18;" parent="1" vertex="1">
                    <mxGeometry x="-1279" y="-680" width="246" height="200" as="geometry"/>
                </mxCell>
                <mxCell id="221" value="&amp;nbsp; USERNAME &lt;br&gt;&amp;nbsp; EMAIL&amp;nbsp;&lt;br&gt;&amp;nbsp; NEWPASSWORD&amp;nbsp;&lt;br&gt;&amp;nbsp; PASSWORD&amp;nbsp;" style="text;html=1;strokeColor=none;fillColor=none;align=left;verticalAlign=middle;spacingLeft=4;spacingRight=4;overflow=hidden;rotatable=0;points=[[0,0.5],[1,0.5]];portConstraint=eastwest;fontSize=18;" parent="220" vertex="1">
                    <mxGeometry y="60" width="246" height="140" as="geometry"/>
                </mxCell>
                <mxCell id="222" style="edgeStyle=none;html=1;entryX=0.5;entryY=0;entryDx=0;entryDy=0;fontSize=18;endArrow=none;endFill=0;" parent="1" source="223" target="192" edge="1">
                    <mxGeometry relative="1" as="geometry"/>
                </mxCell>
                <mxCell id="223" value="&lt;span style=&quot;font-weight: 700;&quot;&gt;&amp;lt;&amp;lt;Functional Component&amp;gt;&amp;gt;&lt;/span&gt;&lt;br style=&quot;font-weight: 700;&quot;&gt;&lt;b&gt;Valdierung&lt;/b&gt;" style="swimlane;fontStyle=0;align=center;verticalAlign=top;childLayout=stackLayout;horizontal=1;startSize=80;horizontalStack=0;resizeParent=1;resizeParentMax=0;resizeLast=0;collapsible=0;marginBottom=0;html=1;fontSize=18;" parent="1" vertex="1">
                    <mxGeometry x="-1389" y="-310" width="710" height="328" as="geometry"/>
                </mxCell>
                <mxCell id="224" value="" style="line;strokeWidth=1;fillColor=none;align=left;verticalAlign=middle;spacingTop=-1;spacingLeft=3;spacingRight=3;rotatable=0;labelPosition=right;points=[];portConstraint=eastwest;fontSize=18;" parent="223" vertex="1">
                    <mxGeometry y="80" width="710" height="38" as="geometry"/>
                </mxCell>
                <mxCell id="225" value="&lt;div style=&quot;&quot;&gt;&lt;font style=&quot;font-size: 18px;&quot;&gt;&lt;font style=&quot;font-size: 18px;&quot;&gt;&amp;nbsp;- usernameInputValidation(username: string) : {&amp;nbsp;&lt;/font&gt;&lt;span style=&quot;background-color: initial;&quot;&gt;message: String ,&amp;nbsp;&lt;/span&gt;&lt;span style=&quot;background-color: initial;&quot;&gt;status: Boolean&lt;/span&gt;&lt;span style=&quot;background-color: initial;&quot;&gt;}&lt;/span&gt;&lt;/font&gt;&lt;/div&gt;&lt;div style=&quot;&quot;&gt;&lt;font style=&quot;font-size: 18px;&quot;&gt;&lt;br&gt;&lt;/font&gt;&lt;/div&gt;&lt;div style=&quot;&quot;&gt;&lt;font style=&quot;font-size: 18px;&quot;&gt;&amp;nbsp;- emailInputValidation(email: string) : { message : String, status: Boolean }&lt;/font&gt;&lt;/div&gt;&lt;div style=&quot;&quot;&gt;&lt;font style=&quot;font-size: 18px;&quot;&gt;&amp;nbsp;&lt;/font&gt;&lt;/div&gt;&lt;div style=&quot;&quot;&gt;&lt;font style=&quot;font-size: 18px;&quot;&gt;&amp;nbsp;- newPasswordInputValidation(password: string) : { message: String, status: Boolean }&lt;/font&gt;&lt;/div&gt;&lt;div style=&quot;&quot;&gt;&lt;font style=&quot;font-size: 18px;&quot;&gt;&amp;nbsp;&lt;/font&gt;&lt;/div&gt;&lt;div style=&quot;&quot;&gt;&lt;font style=&quot;font-size: 18px;&quot;&gt;&amp;nbsp;- passwordInputValidation(password: string) : { message: String, status: Boolean}&amp;nbsp;&lt;/font&gt;&lt;/div&gt;&lt;div style=&quot;&quot;&gt;&lt;font style=&quot;font-size: 18px;&quot;&gt;&lt;br&gt;&lt;/font&gt;&lt;/div&gt;&lt;div style=&quot;&quot;&gt;&lt;font style=&quot;font-size: 18px;&quot;&gt;&amp;nbsp;+ validierung(type: string, value: any) : { meesage: String, status: Boolean}&amp;nbsp;&lt;/font&gt;&lt;/div&gt;" style="text;html=1;align=left;verticalAlign=middle;resizable=0;points=[];autosize=1;strokeColor=none;fillColor=none;fontSize=18;" parent="223" vertex="1">
                    <mxGeometry y="118" width="710" height="210" as="geometry"/>
                </mxCell>
                <mxCell id="226" value="- TYPE" style="text;html=1;align=center;verticalAlign=middle;resizable=0;points=[];autosize=1;strokeColor=none;fillColor=none;fontSize=18;" parent="1" vertex="1">
                    <mxGeometry x="-1086" y="-350" width="80" height="40" as="geometry"/>
                </mxCell>
                <mxCell id="227" value="&lt;span style=&quot;text-align: left;&quot;&gt;- validtionFun()&lt;/span&gt;" style="text;html=1;align=center;verticalAlign=middle;resizable=0;points=[];autosize=1;strokeColor=none;fillColor=none;fontSize=18;" parent="1" vertex="1">
                    <mxGeometry x="-1553" y="234" width="140" height="40" as="geometry"/>
                </mxCell>
                <mxCell id="228" value="&lt;span style=&quot;text-align: left;&quot;&gt;- dispatch&lt;/span&gt;" style="text;html=1;align=center;verticalAlign=middle;resizable=0;points=[];autosize=1;strokeColor=none;fillColor=none;fontSize=18;" parent="1" vertex="1">
                    <mxGeometry x="-1507" y="714" width="100" height="40" as="geometry"/>
                </mxCell>
                <mxCell id="260" value="&amp;lt;&amp;lt;Functional Component&amp;gt;&amp;gt;&lt;br&gt;&lt;b&gt;Input&lt;/b&gt;" style="swimlane;fontStyle=0;align=center;verticalAlign=top;childLayout=stackLayout;horizontal=1;startSize=55;horizontalStack=0;resizeParent=1;resizeParentMax=0;resizeLast=0;collapsible=0;marginBottom=0;html=1;whiteSpace=wrap;" parent="1" vertex="1">
                    <mxGeometry x="-2639" y="294" width="540" height="140" as="geometry"/>
                </mxCell>
                <mxCell id="261" value="- props = { validationType :&amp;nbsp; TYPE , name : String , art : String , placeholder : String&amp;nbsp; }" style="text;html=1;strokeColor=none;fillColor=none;align=left;verticalAlign=middle;spacingLeft=4;spacingRight=4;overflow=hidden;rotatable=0;points=[[0,0.5],[1,0.5]];portConstraint=eastwest;whiteSpace=wrap;" parent="260" vertex="1">
                    <mxGeometry y="55" width="540" height="20" as="geometry"/>
                </mxCell>
                <mxCell id="262" value="" style="line;strokeWidth=1;fillColor=none;align=left;verticalAlign=middle;spacingTop=-1;spacingLeft=3;spacingRight=3;rotatable=0;labelPosition=right;points=[];portConstraint=eastwest;" parent="260" vertex="1">
                    <mxGeometry y="75" width="540" height="8" as="geometry"/>
                </mxCell>
                <mxCell id="263" value="- showPasswordHandler ()&lt;br&gt;&lt;br&gt;- render ()" style="text;html=1;strokeColor=none;fillColor=none;align=left;verticalAlign=middle;spacingLeft=4;spacingRight=4;overflow=hidden;rotatable=0;points=[[0,0.5],[1,0.5]];portConstraint=eastwest;whiteSpace=wrap;" parent="260" vertex="1">
                    <mxGeometry y="83" width="540" height="57" as="geometry"/>
                </mxCell>
                <mxCell id="264" style="edgeStyle=none;html=1;entryX=-0.003;entryY=0.114;entryDx=0;entryDy=0;entryPerimeter=0;fontSize=12;endArrow=none;endFill=0;startArrow=none;exitX=-0.034;exitY=1.008;exitDx=0;exitDy=0;exitPerimeter=0;" parent="1" source="270" target="192" edge="1">
                    <mxGeometry relative="1" as="geometry">
                        <mxPoint x="-1860.7391304347825" y="404" as="sourcePoint"/>
                        <Array as="points">
                            <mxPoint x="-1659" y="324"/>
                        </Array>
                    </mxGeometry>
                </mxCell>
                <mxCell id="265" value="&amp;lt;&amp;lt; use &amp;gt;&amp;gt;" style="text;html=1;align=center;verticalAlign=middle;resizable=0;points=[];autosize=1;strokeColor=none;fillColor=none;fontSize=12;" parent="1" vertex="1">
                    <mxGeometry x="-1909" y="289" width="80" height="30" as="geometry"/>
                </mxCell>
                <mxCell id="266" value="*" style="text;html=1;align=center;verticalAlign=middle;resizable=0;points=[];autosize=1;strokeColor=none;fillColor=none;fontSize=12;" parent="1" vertex="1">
                    <mxGeometry x="-1327" y="249" width="30" height="30" as="geometry"/>
                </mxCell>
                <mxCell id="267" value="1" style="text;html=1;align=center;verticalAlign=middle;resizable=0;points=[];autosize=1;strokeColor=none;fillColor=none;fontSize=12;" parent="1" vertex="1">
                    <mxGeometry x="-1149" y="18" width="30" height="30" as="geometry"/>
                </mxCell>
                <mxCell id="268" value="1" style="text;html=1;align=center;verticalAlign=middle;resizable=0;points=[];autosize=1;strokeColor=none;fillColor=none;fontSize=12;" parent="1" vertex="1">
                    <mxGeometry x="-1279" y="714" width="30" height="30" as="geometry"/>
                </mxCell>
                <mxCell id="269" value="1" style="text;html=1;align=center;verticalAlign=middle;resizable=0;points=[];autosize=1;strokeColor=none;fillColor=none;fontSize=12;" parent="1" vertex="1">
                    <mxGeometry x="-1649" y="294" width="30" height="30" as="geometry"/>
                </mxCell>
                <mxCell id="270" value="1" style="text;html=1;align=center;verticalAlign=middle;resizable=0;points=[];autosize=1;strokeColor=none;fillColor=none;fontSize=12;" parent="1" vertex="1">
                    <mxGeometry x="-2099" y="294" width="30" height="30" as="geometry"/>
                </mxCell>
                <mxCell id="271" value="&lt;font style=&quot;font-size: 10px;&quot; color=&quot;#ffffff&quot;&gt;- useInput(type : TYPE) :&amp;nbsp;&lt;br&gt;&lt;font style=&quot;border-color: var(--border-color); font-size: 10px;&quot;&gt;{&amp;nbsp; enteredInput = input.value: String, message : String ,&lt;br&gt;&amp;nbsp; &amp;nbsp;&lt;font style=&quot;border-color: var(--border-color); font-size: 10px;&quot;&gt;inputClasses,&amp;nbsp;&lt;/font&gt;&lt;font style=&quot;border-color: var(--border-color); font-size: 10px;&quot;&gt;hasError,&amp;nbsp;&lt;/font&gt;inputChangeHandler : Function ,&amp;nbsp;&lt;br&gt;&lt;/font&gt;&lt;span style=&quot;&quot;&gt;&amp;nbsp; &amp;nbsp;inputOnBlurHandler : Function} : Object&lt;/span&gt;&lt;/font&gt;" style="text;html=1;align=left;verticalAlign=middle;resizable=0;points=[];autosize=1;strokeColor=none;fillColor=none;fontSize=12;" parent="1" vertex="1">
                    <mxGeometry x="-2099" y="329" width="280" height="70" as="geometry"/>
                </mxCell>
            </root>
        </mxGraphModel>
    </diagram>
    <diagram id="oC2pd9fs1jWY8SWM7TEj" name="initializeUseInputHook">
        <mxGraphModel dx="3381" dy="784" grid="1" gridSize="10" guides="1" tooltips="1" connect="1" arrows="1" fold="1" page="1" pageScale="1" pageWidth="827" pageHeight="1169" math="0" shadow="0">
            <root>
                <mxCell id="0"/>
                <mxCell id="1" parent="0"/>
                <mxCell id="a-nY0iZCncymDtjeV-lF-1" value="&lt;div style=&quot;color: rgb(212, 212, 212); background-color: rgb(30, 30, 30); font-family: Consolas, &amp;quot;Courier New&amp;quot;, monospace; font-weight: normal; font-size: 14px; line-height: 19px;&quot;&gt;&lt;br&gt;&lt;/div&gt;" style="text;whiteSpace=wrap;html=1;" parent="1" vertex="1">
                    <mxGeometry x="230" y="826" width="140" height="40" as="geometry"/>
                </mxCell>
                <mxCell id="a-nY0iZCncymDtjeV-lF-2" value="useInput : ReactHook" style="shape=umlLifeline;perimeter=lifelinePerimeter;whiteSpace=wrap;html=1;container=1;dropTarget=0;collapsible=0;recursiveResize=0;outlineConnect=0;portConstraint=eastwest;newEdgeStyle={&quot;edgeStyle&quot;:&quot;elbowEdgeStyle&quot;,&quot;elbow&quot;:&quot;vertical&quot;,&quot;curved&quot;:0,&quot;rounded&quot;:0};" parent="1" vertex="1">
                    <mxGeometry x="-580" y="775" width="130" height="590" as="geometry"/>
                </mxCell>
                <mxCell id="a-nY0iZCncymDtjeV-lF-3" value="" style="html=1;points=[[0,0,0,0,5],[0,1,0,0,-5],[1,0,0,0,5],[1,1,0,0,-5]];perimeter=orthogonalPerimeter;outlineConnect=0;targetShapes=umlLifeline;portConstraint=eastwest;newEdgeStyle={&quot;curved&quot;:0,&quot;rounded&quot;:0};" parent="a-nY0iZCncymDtjeV-lF-2" vertex="1">
                    <mxGeometry x="60" y="100" width="10" height="420" as="geometry"/>
                </mxCell>
                <mxCell id="a-nY0iZCncymDtjeV-lF-4" value="" style="html=1;points=[[0,0,0,0,5],[0,1,0,0,-5],[1,0,0,0,5],[1,1,0,0,-5]];perimeter=orthogonalPerimeter;outlineConnect=0;targetShapes=umlLifeline;portConstraint=eastwest;newEdgeStyle={&quot;curved&quot;:0,&quot;rounded&quot;:0};" parent="a-nY0iZCncymDtjeV-lF-2" vertex="1">
                    <mxGeometry x="65" y="320" width="10" height="40" as="geometry"/>
                </mxCell>
                <mxCell id="a-nY0iZCncymDtjeV-lF-5" value="&amp;nbsp;hasError = !enteredInputIsValid &amp;amp;&amp;amp; input.isTouched" style="html=1;align=left;spacingLeft=2;endArrow=block;rounded=0;edgeStyle=orthogonalEdgeStyle;curved=0;rounded=0;" parent="a-nY0iZCncymDtjeV-lF-2" target="a-nY0iZCncymDtjeV-lF-4" edge="1">
                    <mxGeometry x="-0.0018" relative="1" as="geometry">
                        <mxPoint x="70" y="300" as="sourcePoint"/>
                        <Array as="points">
                            <mxPoint x="100" y="330"/>
                        </Array>
                        <mxPoint as="offset"/>
                    </mxGeometry>
                </mxCell>
                <mxCell id="a-nY0iZCncymDtjeV-lF-6" value="" style="html=1;points=[[0,0,0,0,5],[0,1,0,0,-5],[1,0,0,0,5],[1,1,0,0,-5]];perimeter=orthogonalPerimeter;outlineConnect=0;targetShapes=umlLifeline;portConstraint=eastwest;newEdgeStyle={&quot;curved&quot;:0,&quot;rounded&quot;:0};" parent="a-nY0iZCncymDtjeV-lF-2" vertex="1">
                    <mxGeometry x="65" y="420" width="10" height="40" as="geometry"/>
                </mxCell>
                <mxCell id="a-nY0iZCncymDtjeV-lF-7" value="&amp;nbsp;inputClass = hasError ? &quot;invalid&quot; : &quot;&quot;&amp;nbsp;" style="html=1;align=left;spacingLeft=2;endArrow=block;rounded=0;edgeStyle=orthogonalEdgeStyle;curved=0;rounded=0;" parent="a-nY0iZCncymDtjeV-lF-2" target="a-nY0iZCncymDtjeV-lF-6" edge="1">
                    <mxGeometry x="-0.0018" relative="1" as="geometry">
                        <mxPoint x="70" y="400" as="sourcePoint"/>
                        <Array as="points">
                            <mxPoint x="100" y="400"/>
                            <mxPoint x="100" y="430"/>
                        </Array>
                        <mxPoint as="offset"/>
                    </mxGeometry>
                </mxCell>
                <mxCell id="a-nY0iZCncymDtjeV-lF-8" value="" style="html=1;verticalAlign=bottom;endArrow=none;dashed=1;endSize=8;curved=0;rounded=0;endFill=0;" parent="a-nY0iZCncymDtjeV-lF-2" edge="1">
                    <mxGeometry relative="1" as="geometry">
                        <mxPoint x="143" y="450" as="sourcePoint"/>
                        <mxPoint x="73" y="450" as="targetPoint"/>
                    </mxGeometry>
                </mxCell>
                <mxCell id="a-nY0iZCncymDtjeV-lF-9" value="" style="html=1;verticalAlign=bottom;endArrow=open;dashed=1;endSize=8;curved=0;rounded=0;" parent="a-nY0iZCncymDtjeV-lF-2" edge="1">
                    <mxGeometry relative="1" as="geometry">
                        <mxPoint x="143" y="480" as="sourcePoint"/>
                        <mxPoint x="70" y="480" as="targetPoint"/>
                    </mxGeometry>
                </mxCell>
                <mxCell id="a-nY0iZCncymDtjeV-lF-10" value="" style="html=1;verticalAlign=bottom;endArrow=none;dashed=1;endSize=8;curved=0;rounded=0;endFill=0;" parent="a-nY0iZCncymDtjeV-lF-2" edge="1">
                    <mxGeometry relative="1" as="geometry">
                        <mxPoint x="143" y="480" as="sourcePoint"/>
                        <mxPoint x="143" y="450" as="targetPoint"/>
                    </mxGeometry>
                </mxCell>
                <mxCell id="a-nY0iZCncymDtjeV-lF-11" value="useReducer : ReactHook&amp;nbsp;" style="shape=umlLifeline;perimeter=lifelinePerimeter;whiteSpace=wrap;html=1;container=1;dropTarget=0;collapsible=0;recursiveResize=0;outlineConnect=0;portConstraint=eastwest;newEdgeStyle={&quot;edgeStyle&quot;:&quot;elbowEdgeStyle&quot;,&quot;elbow&quot;:&quot;vertical&quot;,&quot;curved&quot;:0,&quot;rounded&quot;:0};" parent="1" vertex="1">
                    <mxGeometry x="-80" y="775" width="150" height="300" as="geometry"/>
                </mxCell>
                <mxCell id="a-nY0iZCncymDtjeV-lF-12" value="" style="html=1;points=[[0,0,0,0,5],[0,1,0,0,-5],[1,0,0,0,5],[1,1,0,0,-5]];perimeter=orthogonalPerimeter;outlineConnect=0;targetShapes=umlLifeline;portConstraint=eastwest;newEdgeStyle={&quot;curved&quot;:0,&quot;rounded&quot;:0};" parent="a-nY0iZCncymDtjeV-lF-11" vertex="1">
                    <mxGeometry x="70" y="110" width="10" height="50" as="geometry"/>
                </mxCell>
                <mxCell id="a-nY0iZCncymDtjeV-lF-13" value="useReducer(inputStateReducer : Function, {value=&quot;&quot; : String, isTouched = false : Boolean})" style="html=1;verticalAlign=bottom;endArrow=block;curved=0;rounded=0;" parent="1" target="a-nY0iZCncymDtjeV-lF-11" edge="1">
                    <mxGeometry width="80" relative="1" as="geometry">
                        <mxPoint x="-509.9999999999991" y="885" as="sourcePoint"/>
                        <mxPoint x="-430" y="885" as="targetPoint"/>
                    </mxGeometry>
                </mxCell>
                <mxCell id="a-nY0iZCncymDtjeV-lF-14" value="[input : Objekt, dispatch : Function ]" style="html=1;verticalAlign=bottom;endArrow=open;dashed=1;endSize=8;curved=0;rounded=0;" parent="1" edge="1">
                    <mxGeometry relative="1" as="geometry">
                        <mxPoint x="-4.9999999999990905" y="924.75" as="sourcePoint"/>
                        <mxPoint x="-509.9999999999991" y="924.75" as="targetPoint"/>
                    </mxGeometry>
                </mxCell>
                <mxCell id="a-nY0iZCncymDtjeV-lF-15" value="&amp;nbsp;: Validierung" style="shape=umlLifeline;perimeter=lifelinePerimeter;whiteSpace=wrap;html=1;container=1;dropTarget=0;collapsible=0;recursiveResize=0;outlineConnect=0;portConstraint=eastwest;newEdgeStyle={&quot;edgeStyle&quot;:&quot;elbowEdgeStyle&quot;,&quot;elbow&quot;:&quot;vertical&quot;,&quot;curved&quot;:0,&quot;rounded&quot;:0};" parent="1" vertex="1">
                    <mxGeometry x="-190" y="945" width="150" height="170" as="geometry"/>
                </mxCell>
                <mxCell id="a-nY0iZCncymDtjeV-lF-16" value="" style="html=1;points=[[0,0,0,0,5],[0,1,0,0,-5],[1,0,0,0,5],[1,1,0,0,-5]];perimeter=orthogonalPerimeter;outlineConnect=0;targetShapes=umlLifeline;portConstraint=eastwest;newEdgeStyle={&quot;curved&quot;:0,&quot;rounded&quot;:0};" parent="a-nY0iZCncymDtjeV-lF-15" vertex="1">
                    <mxGeometry x="70" y="60" width="10" height="60" as="geometry"/>
                </mxCell>
                <mxCell id="a-nY0iZCncymDtjeV-lF-17" value="valdierung(type : TYPE, input.value : String)" style="html=1;verticalAlign=bottom;endArrow=block;curved=0;rounded=0;" parent="1" target="a-nY0iZCncymDtjeV-lF-15" edge="1">
                    <mxGeometry x="0.002" width="80" relative="1" as="geometry">
                        <mxPoint x="-509.9999999999991" y="1015" as="sourcePoint"/>
                        <mxPoint x="-430" y="1015" as="targetPoint"/>
                        <mxPoint as="offset"/>
                    </mxGeometry>
                </mxCell>
                <mxCell id="a-nY0iZCncymDtjeV-lF-18" value="message = message : String, enteredInputIsValid = state = false : Boolean" style="html=1;verticalAlign=bottom;endArrow=open;dashed=1;endSize=8;curved=0;rounded=0;" parent="1" source="a-nY0iZCncymDtjeV-lF-15" edge="1">
                    <mxGeometry relative="1" as="geometry">
                        <mxPoint x="-260" y="1055" as="sourcePoint"/>
                        <mxPoint x="-515.125" y="1055" as="targetPoint"/>
                    </mxGeometry>
                </mxCell>
                <mxCell id="a-nY0iZCncymDtjeV-lF-19" value="" style="html=1;verticalAlign=bottom;endArrow=none;dashed=1;endSize=8;curved=0;rounded=0;endFill=0;" parent="1" edge="1">
                    <mxGeometry relative="1" as="geometry">
                        <mxPoint x="-437" y="1125" as="sourcePoint"/>
                        <mxPoint x="-507" y="1125" as="targetPoint"/>
                    </mxGeometry>
                </mxCell>
                <mxCell id="a-nY0iZCncymDtjeV-lF-20" value="" style="html=1;verticalAlign=bottom;endArrow=open;dashed=1;endSize=8;curved=0;rounded=0;" parent="1" edge="1">
                    <mxGeometry relative="1" as="geometry">
                        <mxPoint x="-437" y="1155" as="sourcePoint"/>
                        <mxPoint x="-509.9999999999991" y="1155" as="targetPoint"/>
                    </mxGeometry>
                </mxCell>
                <mxCell id="a-nY0iZCncymDtjeV-lF-21" value="" style="html=1;verticalAlign=bottom;endArrow=none;dashed=1;endSize=8;curved=0;rounded=0;endFill=0;" parent="1" edge="1">
                    <mxGeometry relative="1" as="geometry">
                        <mxPoint x="-437" y="1155" as="sourcePoint"/>
                        <mxPoint x="-437" y="1125" as="targetPoint"/>
                    </mxGeometry>
                </mxCell>
                <mxCell id="a-nY0iZCncymDtjeV-lF-22" value="" style="html=1;verticalAlign=bottom;endArrow=open;dashed=1;endSize=8;curved=0;rounded=0;" parent="1" target="a-nY0iZCncymDtjeV-lF-24" edge="1">
                    <mxGeometry relative="1" as="geometry">
                        <mxPoint x="-519.9999999999991" y="1285" as="sourcePoint"/>
                        <mxPoint x="-1130" y="1285" as="targetPoint"/>
                    </mxGeometry>
                </mxCell>
                <mxCell id="a-nY0iZCncymDtjeV-lF-23" value="&lt;font style=&quot;font-size: 9px;&quot;&gt;&lt;font style=&quot;border-color: var(--border-color); font-size: 9px;&quot;&gt;{ enteredInput = input.value: String, message : String ,&amp;nbsp;&lt;font style=&quot;border-color: var(--border-color); font-size: 9px;&quot;&gt;inputClasses,&amp;nbsp;&lt;/font&gt;&lt;font style=&quot;border-color: var(--border-color); background-color: initial; font-size: 9px;&quot;&gt;hasError,&amp;nbsp;&lt;/font&gt;inputChangeHandler : Function ,&amp;nbsp;&lt;/font&gt;inputOnBlurHandler : Function} : Object&lt;/font&gt;" style="text;html=1;align=center;verticalAlign=middle;resizable=0;points=[];autosize=1;strokeColor=none;fillColor=none;" parent="1" vertex="1">
                    <mxGeometry x="-1160" y="1255" width="630" height="30" as="geometry"/>
                </mxCell>
                <mxCell id="a-nY0iZCncymDtjeV-lF-24" value="Input : React.Component" style="shape=umlLifeline;perimeter=lifelinePerimeter;whiteSpace=wrap;html=1;container=1;dropTarget=0;collapsible=0;recursiveResize=0;outlineConnect=0;portConstraint=eastwest;newEdgeStyle={&quot;curved&quot;:0,&quot;rounded&quot;:0};" parent="1" vertex="1">
                    <mxGeometry x="-1260" y="775" width="190" height="550" as="geometry"/>
                </mxCell>
                <mxCell id="a-nY0iZCncymDtjeV-lF-25" value="" style="html=1;points=[[0,0,0,0,5],[0,1,0,0,-5],[1,0,0,0,5],[1,1,0,0,-5]];perimeter=orthogonalPerimeter;outlineConnect=0;targetShapes=umlLifeline;portConstraint=eastwest;newEdgeStyle={&quot;curved&quot;:0,&quot;rounded&quot;:0};" parent="a-nY0iZCncymDtjeV-lF-24" vertex="1">
                    <mxGeometry x="90" y="100" width="10" height="40" as="geometry"/>
                </mxCell>
                <mxCell id="a-nY0iZCncymDtjeV-lF-26" value="" style="html=1;points=[[0,0,0,0,5],[0,1,0,0,-5],[1,0,0,0,5],[1,1,0,0,-5]];perimeter=orthogonalPerimeter;outlineConnect=0;targetShapes=umlLifeline;portConstraint=eastwest;newEdgeStyle={&quot;curved&quot;:0,&quot;rounded&quot;:0};" parent="a-nY0iZCncymDtjeV-lF-24" vertex="1">
                    <mxGeometry x="90" y="490" width="10" height="40" as="geometry"/>
                </mxCell>
                <mxCell id="a-nY0iZCncymDtjeV-lF-27" value="&lt;font style=&quot;font-size: 14px;&quot;&gt;useInput(type : TYPE)&lt;/font&gt;" style="html=1;verticalAlign=bottom;endArrow=block;curved=0;rounded=0;" parent="1" target="a-nY0iZCncymDtjeV-lF-3" edge="1">
                    <mxGeometry x="-0.125" width="80" relative="1" as="geometry">
                        <mxPoint x="-1159.999999999999" y="895" as="sourcePoint"/>
                        <mxPoint x="-1080" y="895" as="targetPoint"/>
                        <mxPoint as="offset"/>
                    </mxGeometry>
                </mxCell>
                <mxCell id="a-nY0iZCncymDtjeV-lF-28" value="&amp;lt;&amp;lt;use&amp;gt;&amp;gt;" style="text;html=1;align=center;verticalAlign=middle;resizable=0;points=[];autosize=1;strokeColor=none;fillColor=none;" parent="1" vertex="1">
                    <mxGeometry x="-920" y="895" width="70" height="30" as="geometry"/>
                </mxCell>
                <mxCell id="a-nY0iZCncymDtjeV-lF-29" value="&amp;lt;&amp;lt;use&amp;gt;&amp;gt;" style="text;html=1;align=center;verticalAlign=middle;resizable=0;points=[];autosize=1;strokeColor=none;fillColor=none;" parent="1" vertex="1">
                    <mxGeometry x="-300" y="875" width="70" height="30" as="geometry"/>
                </mxCell>
                <mxCell id="a-nY0iZCncymDtjeV-lF-30" value="&lt;font style=&quot;font-size: 12px;&quot;&gt;haseError = false : Boolean&lt;/font&gt;" style="text;html=1;align=center;verticalAlign=middle;resizable=0;points=[];autosize=1;strokeColor=none;fillColor=none;fontSize=18;" parent="1" vertex="1">
                    <mxGeometry x="-440" y="1115" width="170" height="40" as="geometry"/>
                </mxCell>
                <mxCell id="a-nY0iZCncymDtjeV-lF-31" value="inputClass = &quot;&quot; : String" style="text;html=1;align=center;verticalAlign=middle;resizable=0;points=[];autosize=1;strokeColor=none;fillColor=none;fontSize=12;" parent="1" vertex="1">
                    <mxGeometry x="-440" y="1225" width="140" height="30" as="geometry"/>
                </mxCell>
                <mxCell id="a-nY0iZCncymDtjeV-lF-32" value="initialize useInput Hook" style="shape=umlFrame;whiteSpace=wrap;html=1;pointerEvents=0;width=240;height=50;" parent="1" vertex="1">
                    <mxGeometry x="-1410" y="670" width="1700" height="760" as="geometry"/>
                </mxCell>
            </root>
        </mxGraphModel>
    </diagram>
    <diagram id="WUQ3hCvP7vIzfJInjt8m" name="useInput_Inner_stateChange">
        <mxGraphModel dx="900" dy="1953" grid="1" gridSize="10" guides="1" tooltips="1" connect="1" arrows="1" fold="1" page="1" pageScale="1" pageWidth="827" pageHeight="1169" math="0" shadow="0">
            <root>
                <mxCell id="0"/>
                <mxCell id="1" parent="0"/>
                <mxCell id="9XCGhIRTOsACsdVolphm-1" value="useInput : ReactHook" style="shape=umlLifeline;perimeter=lifelinePerimeter;whiteSpace=wrap;html=1;container=1;dropTarget=0;collapsible=0;recursiveResize=0;outlineConnect=0;portConstraint=eastwest;newEdgeStyle={&quot;edgeStyle&quot;:&quot;elbowEdgeStyle&quot;,&quot;elbow&quot;:&quot;vertical&quot;,&quot;curved&quot;:0,&quot;rounded&quot;:0};" parent="1" vertex="1">
                    <mxGeometry x="1590" y="-430" width="130" height="696" as="geometry"/>
                </mxCell>
                <mxCell id="9XCGhIRTOsACsdVolphm-2" value="alt" style="shape=umlFrame;whiteSpace=wrap;html=1;pointerEvents=0;" parent="1" vertex="1">
                    <mxGeometry x="1220" y="-300" width="960" height="560" as="geometry"/>
                </mxCell>
                <mxCell id="9XCGhIRTOsACsdVolphm-3" value="useInput_Inner_stateChange" style="shape=umlFrame;whiteSpace=wrap;html=1;pointerEvents=0;width=240;height=40;" parent="1" vertex="1">
                    <mxGeometry x="1120" y="-460" width="1150" height="790" as="geometry"/>
                </mxCell>
                <mxCell id="9XCGhIRTOsACsdVolphm-4" value="[&amp;nbsp; input.isTouched == true &amp;amp;&amp;amp; enteredInputIsValid&amp;nbsp;== true &lt;br&gt;&amp;nbsp; &amp;nbsp; &amp;nbsp; &amp;nbsp;||&amp;nbsp;input.isTouched == false &amp;amp;&amp;amp; enteredInputIsValid&amp;nbsp;== true ]" style="text;html=1;align=center;verticalAlign=middle;resizable=0;points=[];autosize=1;strokeColor=none;fillColor=none;" parent="1" vertex="1">
                    <mxGeometry x="1265" y="-290" width="360" height="40" as="geometry"/>
                </mxCell>
                <mxCell id="9XCGhIRTOsACsdVolphm-5" value="" style="html=1;points=[[0,0,0,0,5],[0,1,0,0,-5],[1,0,0,0,5],[1,1,0,0,-5]];perimeter=orthogonalPerimeter;outlineConnect=0;targetShapes=umlLifeline;portConstraint=eastwest;newEdgeStyle={&quot;curved&quot;:0,&quot;rounded&quot;:0};" parent="1" vertex="1">
                    <mxGeometry x="1650" y="-280" width="10" height="516" as="geometry"/>
                </mxCell>
                <mxCell id="9XCGhIRTOsACsdVolphm-6" value="" style="html=1;points=[[0,0,0,0,5],[0,1,0,0,-5],[1,0,0,0,5],[1,1,0,0,-5]];perimeter=orthogonalPerimeter;outlineConnect=0;targetShapes=umlLifeline;portConstraint=eastwest;newEdgeStyle={&quot;curved&quot;:0,&quot;rounded&quot;:0};" parent="1" vertex="1">
                    <mxGeometry x="1655" y="-250" width="10" height="40" as="geometry"/>
                </mxCell>
                <mxCell id="9XCGhIRTOsACsdVolphm-7" value="&amp;nbsp;hasError = !enteredInputIsValid &amp;amp;&amp;amp; input.isTouched&amp;nbsp;" style="html=1;align=left;spacingLeft=2;endArrow=block;rounded=0;edgeStyle=orthogonalEdgeStyle;curved=0;rounded=0;" parent="1" target="9XCGhIRTOsACsdVolphm-6" edge="1">
                    <mxGeometry relative="1" as="geometry">
                        <mxPoint x="1660" y="-270" as="sourcePoint"/>
                        <Array as="points">
                            <mxPoint x="1690" y="-240"/>
                        </Array>
                    </mxGeometry>
                </mxCell>
                <mxCell id="9XCGhIRTOsACsdVolphm-8" value="" style="html=1;verticalAlign=bottom;endArrow=none;dashed=1;endSize=8;curved=0;rounded=0;endFill=0;" parent="1" edge="1">
                    <mxGeometry relative="1" as="geometry">
                        <mxPoint x="1665" y="-220" as="sourcePoint"/>
                        <mxPoint x="1705" y="-220" as="targetPoint"/>
                    </mxGeometry>
                </mxCell>
                <mxCell id="9XCGhIRTOsACsdVolphm-9" value="" style="html=1;verticalAlign=bottom;endArrow=none;dashed=1;endSize=8;curved=0;rounded=0;endFill=0;" parent="1" edge="1">
                    <mxGeometry relative="1" as="geometry">
                        <mxPoint x="1705" y="-220" as="sourcePoint"/>
                        <mxPoint x="1705" y="-190" as="targetPoint"/>
                    </mxGeometry>
                </mxCell>
                <mxCell id="9XCGhIRTOsACsdVolphm-10" value="" style="html=1;verticalAlign=bottom;endArrow=open;dashed=1;endSize=8;curved=0;rounded=0;" parent="1" target="9XCGhIRTOsACsdVolphm-5" edge="1">
                    <mxGeometry relative="1" as="geometry">
                        <mxPoint x="1705" y="-190" as="sourcePoint"/>
                        <mxPoint x="1665" y="-190" as="targetPoint"/>
                    </mxGeometry>
                </mxCell>
                <mxCell id="9XCGhIRTOsACsdVolphm-11" value="&amp;nbsp; &amp;nbsp; &amp;nbsp;hasError = false&amp;nbsp;" style="text;html=1;align=center;verticalAlign=middle;resizable=0;points=[];autosize=1;strokeColor=none;fillColor=none;" parent="1" vertex="1">
                    <mxGeometry x="1680" y="-220" width="130" height="30" as="geometry"/>
                </mxCell>
                <mxCell id="9XCGhIRTOsACsdVolphm-12" value="" style="html=1;points=[[0,0,0,0,5],[0,1,0,0,-5],[1,0,0,0,5],[1,1,0,0,-5]];perimeter=orthogonalPerimeter;outlineConnect=0;targetShapes=umlLifeline;portConstraint=eastwest;newEdgeStyle={&quot;curved&quot;:0,&quot;rounded&quot;:0};" parent="1" vertex="1">
                    <mxGeometry x="1655" y="-140" width="10" height="40" as="geometry"/>
                </mxCell>
                <mxCell id="9XCGhIRTOsACsdVolphm-13" value="inputClasses = hasError ? &quot;invalid&quot; : &quot;&quot;" style="html=1;align=left;spacingLeft=2;endArrow=block;rounded=0;edgeStyle=orthogonalEdgeStyle;curved=0;rounded=0;" parent="1" target="9XCGhIRTOsACsdVolphm-12" edge="1">
                    <mxGeometry relative="1" as="geometry">
                        <mxPoint x="1660" y="-160" as="sourcePoint"/>
                        <Array as="points">
                            <mxPoint x="1690" y="-130"/>
                        </Array>
                    </mxGeometry>
                </mxCell>
                <mxCell id="9XCGhIRTOsACsdVolphm-14" value="" style="html=1;verticalAlign=bottom;endArrow=none;dashed=1;endSize=8;curved=0;rounded=0;endFill=0;" parent="1" edge="1">
                    <mxGeometry relative="1" as="geometry">
                        <mxPoint x="1665" y="-110" as="sourcePoint"/>
                        <mxPoint x="1705" y="-110" as="targetPoint"/>
                    </mxGeometry>
                </mxCell>
                <mxCell id="9XCGhIRTOsACsdVolphm-15" value="" style="html=1;verticalAlign=bottom;endArrow=none;dashed=1;endSize=8;curved=0;rounded=0;endFill=0;" parent="1" edge="1">
                    <mxGeometry relative="1" as="geometry">
                        <mxPoint x="1705" y="-110" as="sourcePoint"/>
                        <mxPoint x="1705" y="-80" as="targetPoint"/>
                    </mxGeometry>
                </mxCell>
                <mxCell id="9XCGhIRTOsACsdVolphm-16" value="" style="html=1;verticalAlign=bottom;endArrow=open;dashed=1;endSize=8;curved=0;rounded=0;" parent="1" edge="1">
                    <mxGeometry relative="1" as="geometry">
                        <mxPoint x="1705" y="-80" as="sourcePoint"/>
                        <mxPoint x="1660" y="-80" as="targetPoint"/>
                    </mxGeometry>
                </mxCell>
                <mxCell id="9XCGhIRTOsACsdVolphm-17" value="&lt;span style=&quot;color: rgb(0, 0, 0); font-family: Helvetica; font-size: 11px; font-style: normal; font-variant-ligatures: normal; font-variant-caps: normal; font-weight: 400; letter-spacing: normal; orphans: 2; text-align: left; text-indent: 0px; text-transform: none; widows: 2; word-spacing: 0px; -webkit-text-stroke-width: 0px; background-color: rgb(255, 255, 255); text-decoration-thickness: initial; text-decoration-style: initial; text-decoration-color: initial; float: none; display: inline !important;&quot;&gt;inputClasses = &quot;&quot;&lt;span&gt;&amp;nbsp;&lt;/span&gt;&lt;/span&gt;" style="text;whiteSpace=wrap;html=1;" parent="1" vertex="1">
                    <mxGeometry x="1710" y="-110" width="100" height="40" as="geometry"/>
                </mxCell>
                <mxCell id="9XCGhIRTOsACsdVolphm-18" value="" style="html=1;verticalAlign=bottom;endArrow=none;dashed=1;endSize=8;curved=0;rounded=0;entryX=-0.006;entryY=0.461;entryDx=0;entryDy=0;entryPerimeter=0;endFill=0;" parent="1" edge="1">
                    <mxGeometry relative="1" as="geometry">
                        <mxPoint x="2180" y="-30" as="sourcePoint"/>
                        <mxPoint x="1220" y="-30" as="targetPoint"/>
                    </mxGeometry>
                </mxCell>
                <mxCell id="9XCGhIRTOsACsdVolphm-19" value="[&amp;nbsp; input.isTouched == true &amp;amp;&amp;amp; enteredInputIsValid&amp;nbsp;== false&amp;nbsp;&lt;span style=&quot;text-align: center;&quot;&gt;]&lt;/span&gt;" style="text;whiteSpace=wrap;html=1;" parent="1" vertex="1">
                    <mxGeometry x="1275" y="-30" width="350" height="40" as="geometry"/>
                </mxCell>
                <mxCell id="9XCGhIRTOsACsdVolphm-20" value="" style="html=1;points=[[0,0,0,0,5],[0,1,0,0,-5],[1,0,0,0,5],[1,1,0,0,-5]];perimeter=orthogonalPerimeter;outlineConnect=0;targetShapes=umlLifeline;portConstraint=eastwest;newEdgeStyle={&quot;curved&quot;:0,&quot;rounded&quot;:0};" parent="1" vertex="1">
                    <mxGeometry x="1655" y="30" width="10" height="40" as="geometry"/>
                </mxCell>
                <mxCell id="9XCGhIRTOsACsdVolphm-21" value="&amp;nbsp;hasError = !enteredInputIsValid &amp;amp;&amp;amp; input.isTouched&amp;nbsp;" style="html=1;align=left;spacingLeft=2;endArrow=block;rounded=0;edgeStyle=orthogonalEdgeStyle;curved=0;rounded=0;" parent="1" target="9XCGhIRTOsACsdVolphm-20" edge="1">
                    <mxGeometry relative="1" as="geometry">
                        <mxPoint x="1660" y="10" as="sourcePoint"/>
                        <Array as="points">
                            <mxPoint x="1690" y="40"/>
                        </Array>
                    </mxGeometry>
                </mxCell>
                <mxCell id="9XCGhIRTOsACsdVolphm-22" value="" style="html=1;verticalAlign=bottom;endArrow=none;dashed=1;endSize=8;curved=0;rounded=0;endFill=0;" parent="1" edge="1">
                    <mxGeometry relative="1" as="geometry">
                        <mxPoint x="1665" y="60" as="sourcePoint"/>
                        <mxPoint x="1705" y="60" as="targetPoint"/>
                    </mxGeometry>
                </mxCell>
                <mxCell id="9XCGhIRTOsACsdVolphm-23" value="" style="html=1;verticalAlign=bottom;endArrow=none;dashed=1;endSize=8;curved=0;rounded=0;endFill=0;" parent="1" edge="1">
                    <mxGeometry relative="1" as="geometry">
                        <mxPoint x="1705" y="60" as="sourcePoint"/>
                        <mxPoint x="1705" y="90" as="targetPoint"/>
                    </mxGeometry>
                </mxCell>
                <mxCell id="9XCGhIRTOsACsdVolphm-24" value="" style="html=1;verticalAlign=bottom;endArrow=open;dashed=1;endSize=8;curved=0;rounded=0;" parent="1" edge="1">
                    <mxGeometry relative="1" as="geometry">
                        <mxPoint x="1705" y="90" as="sourcePoint"/>
                        <mxPoint x="1660" y="90" as="targetPoint"/>
                    </mxGeometry>
                </mxCell>
                <mxCell id="9XCGhIRTOsACsdVolphm-25" value="" style="html=1;points=[[0,0,0,0,5],[0,1,0,0,-5],[1,0,0,0,5],[1,1,0,0,-5]];perimeter=orthogonalPerimeter;outlineConnect=0;targetShapes=umlLifeline;portConstraint=eastwest;newEdgeStyle={&quot;curved&quot;:0,&quot;rounded&quot;:0};" parent="1" vertex="1">
                    <mxGeometry x="1655" y="140" width="10" height="40" as="geometry"/>
                </mxCell>
                <mxCell id="9XCGhIRTOsACsdVolphm-26" value="inputClasses = hasError ? &quot;invalid&quot; : &quot;&quot;" style="html=1;align=left;spacingLeft=2;endArrow=block;rounded=0;edgeStyle=orthogonalEdgeStyle;curved=0;rounded=0;" parent="1" target="9XCGhIRTOsACsdVolphm-25" edge="1">
                    <mxGeometry relative="1" as="geometry">
                        <mxPoint x="1660" y="120" as="sourcePoint"/>
                        <Array as="points">
                            <mxPoint x="1690" y="150"/>
                        </Array>
                    </mxGeometry>
                </mxCell>
                <mxCell id="9XCGhIRTOsACsdVolphm-27" value="" style="html=1;verticalAlign=bottom;endArrow=none;dashed=1;endSize=8;curved=0;rounded=0;endFill=0;" parent="1" edge="1">
                    <mxGeometry relative="1" as="geometry">
                        <mxPoint x="1665" y="170" as="sourcePoint"/>
                        <mxPoint x="1705" y="170" as="targetPoint"/>
                    </mxGeometry>
                </mxCell>
                <mxCell id="9XCGhIRTOsACsdVolphm-28" value="" style="html=1;verticalAlign=bottom;endArrow=none;dashed=1;endSize=8;curved=0;rounded=0;endFill=0;" parent="1" edge="1">
                    <mxGeometry relative="1" as="geometry">
                        <mxPoint x="1705" y="170" as="sourcePoint"/>
                        <mxPoint x="1705" y="200" as="targetPoint"/>
                    </mxGeometry>
                </mxCell>
                <mxCell id="9XCGhIRTOsACsdVolphm-29" value="" style="html=1;verticalAlign=bottom;endArrow=open;dashed=1;endSize=8;curved=0;rounded=0;" parent="1" edge="1">
                    <mxGeometry relative="1" as="geometry">
                        <mxPoint x="1705" y="200" as="sourcePoint"/>
                        <mxPoint x="1660" y="200" as="targetPoint"/>
                    </mxGeometry>
                </mxCell>
                <mxCell id="9XCGhIRTOsACsdVolphm-30" value="&amp;nbsp; &amp;nbsp; &amp;nbsp;hasError = true" style="text;html=1;align=center;verticalAlign=middle;resizable=0;points=[];autosize=1;strokeColor=none;fillColor=none;" parent="1" vertex="1">
                    <mxGeometry x="1685" y="60" width="120" height="30" as="geometry"/>
                </mxCell>
                <mxCell id="9XCGhIRTOsACsdVolphm-31" value="&lt;span style=&quot;color: rgb(0, 0, 0); font-family: Helvetica; font-size: 11px; font-style: normal; font-variant-ligatures: normal; font-variant-caps: normal; font-weight: 400; letter-spacing: normal; orphans: 2; text-align: left; text-indent: 0px; text-transform: none; widows: 2; word-spacing: 0px; -webkit-text-stroke-width: 0px; background-color: rgb(255, 255, 255); text-decoration-thickness: initial; text-decoration-style: initial; text-decoration-color: initial; float: none; display: inline !important;&quot;&gt;inputClasses = &quot;invalid&quot;&lt;span&gt;&amp;nbsp;&lt;/span&gt;&lt;/span&gt;" style="text;whiteSpace=wrap;html=1;" parent="1" vertex="1">
                    <mxGeometry x="1720" y="170" width="150" height="40" as="geometry"/>
                </mxCell>
            </root>
        </mxGraphModel>
    </diagram>
    <diagram id="QKTUA7iR3jr-Ekk8ZlnR" name="use_Input_SequenzDigramm">
        <mxGraphModel dx="-232" dy="646" grid="1" gridSize="10" guides="1" tooltips="1" connect="1" arrows="1" fold="1" page="1" pageScale="1" pageWidth="827" pageHeight="1169" math="0" shadow="0">
            <root>
                <mxCell id="0"/>
                <mxCell id="1" parent="0"/>
                <mxCell id="2_D3xBzRl5e0JPMFgnK--1" value="Input : React.Component" style="shape=umlLifeline;perimeter=lifelinePerimeter;whiteSpace=wrap;html=1;container=1;dropTarget=0;collapsible=0;recursiveResize=0;outlineConnect=0;portConstraint=eastwest;newEdgeStyle={&quot;curved&quot;:0,&quot;rounded&quot;:0};" parent="1" vertex="1">
                    <mxGeometry x="2232" y="540" width="190" height="1080" as="geometry"/>
                </mxCell>
                <mxCell id="2_D3xBzRl5e0JPMFgnK--2" value="" style="html=1;points=[[0,0,0,0,5],[0,1,0,0,-5],[1,0,0,0,5],[1,1,0,0,-5]];perimeter=orthogonalPerimeter;outlineConnect=0;targetShapes=umlLifeline;portConstraint=eastwest;newEdgeStyle={&quot;curved&quot;:0,&quot;rounded&quot;:0};" parent="2_D3xBzRl5e0JPMFgnK--1" vertex="1">
                    <mxGeometry x="90" y="185" width="10" height="765" as="geometry"/>
                </mxCell>
                <mxCell id="2_D3xBzRl5e0JPMFgnK--3" value="useInput : ReactHook" style="shape=umlLifeline;perimeter=lifelinePerimeter;whiteSpace=wrap;html=1;container=1;dropTarget=0;collapsible=0;recursiveResize=0;outlineConnect=0;portConstraint=eastwest;newEdgeStyle={&quot;edgeStyle&quot;:&quot;elbowEdgeStyle&quot;,&quot;elbow&quot;:&quot;vertical&quot;,&quot;curved&quot;:0,&quot;rounded&quot;:0};" parent="1" vertex="1">
                    <mxGeometry x="2592" y="540" width="130" height="1080" as="geometry"/>
                </mxCell>
                <mxCell id="2_D3xBzRl5e0JPMFgnK--4" value="&amp;nbsp;: Validierung" style="shape=umlLifeline;perimeter=lifelinePerimeter;whiteSpace=wrap;html=1;container=1;dropTarget=0;collapsible=0;recursiveResize=0;outlineConnect=0;portConstraint=eastwest;newEdgeStyle={&quot;edgeStyle&quot;:&quot;elbowEdgeStyle&quot;,&quot;elbow&quot;:&quot;vertical&quot;,&quot;curved&quot;:0,&quot;rounded&quot;:0};" parent="1" vertex="1">
                    <mxGeometry x="2972" y="520" width="150" height="1100" as="geometry"/>
                </mxCell>
                <mxCell id="2_D3xBzRl5e0JPMFgnK--5" value="useReducer : ReactHook&amp;nbsp;" style="shape=umlLifeline;perimeter=lifelinePerimeter;whiteSpace=wrap;html=1;container=1;dropTarget=0;collapsible=0;recursiveResize=0;outlineConnect=0;portConstraint=eastwest;newEdgeStyle={&quot;edgeStyle&quot;:&quot;elbowEdgeStyle&quot;,&quot;elbow&quot;:&quot;vertical&quot;,&quot;curved&quot;:0,&quot;rounded&quot;:0};" parent="1" vertex="1">
                    <mxGeometry x="3302" y="540" width="150" height="1080" as="geometry"/>
                </mxCell>
                <mxCell id="2_D3xBzRl5e0JPMFgnK--6" value="initialize useInput Hook" style="shape=umlFrame;whiteSpace=wrap;html=1;pointerEvents=0;recursiveResize=0;container=1;collapsible=0;width=160;" parent="1" vertex="1">
                    <mxGeometry x="2190" y="640" width="1272" height="40" as="geometry"/>
                </mxCell>
                <mxCell id="2_D3xBzRl5e0JPMFgnK--7" value="event&amp;nbsp; : Event" style="html=1;verticalAlign=bottom;endArrow=block;curved=0;rounded=0;" parent="1" edge="1">
                    <mxGeometry width="80" relative="1" as="geometry">
                        <mxPoint x="2332" y="730" as="sourcePoint"/>
                        <mxPoint x="2652" y="730" as="targetPoint"/>
                    </mxGeometry>
                </mxCell>
                <mxCell id="2_D3xBzRl5e0JPMFgnK--8" value="alt" style="shape=umlFrame;whiteSpace=wrap;html=1;pointerEvents=0;" parent="1" vertex="1">
                    <mxGeometry x="2195" y="750" width="1267" height="630" as="geometry"/>
                </mxCell>
                <mxCell id="2_D3xBzRl5e0JPMFgnK--9" value="&lt;font style=&quot;font-size: 11px;&quot;&gt;[ inputOnChangeHandler ]&lt;/font&gt;" style="text;html=1;align=center;verticalAlign=middle;resizable=0;points=[];autosize=1;strokeColor=none;fillColor=none;" parent="1" vertex="1">
                    <mxGeometry x="2332" y="750" width="150" height="30" as="geometry"/>
                </mxCell>
                <mxCell id="2_D3xBzRl5e0JPMFgnK--10" value="" style="html=1;points=[[0,0,0,0,5],[0,1,0,0,-5],[1,0,0,0,5],[1,1,0,0,-5]];perimeter=orthogonalPerimeter;outlineConnect=0;targetShapes=umlLifeline;portConstraint=eastwest;newEdgeStyle={&quot;curved&quot;:0,&quot;rounded&quot;:0};" parent="1" vertex="1">
                    <mxGeometry x="2652" y="727.5" width="10" height="752.5" as="geometry"/>
                </mxCell>
                <mxCell id="2_D3xBzRl5e0JPMFgnK--11" value="dispatch(action = {type: &quot;INPUT&quot;, value: event.target.value})" style="html=1;verticalAlign=bottom;endArrow=block;curved=0;rounded=0;entryX=0.467;entryY=0.203;entryDx=0;entryDy=0;entryPerimeter=0;" parent="1" target="2_D3xBzRl5e0JPMFgnK--5" edge="1">
                    <mxGeometry width="80" relative="1" as="geometry">
                        <mxPoint x="2662" y="780" as="sourcePoint"/>
                        <mxPoint x="2742" y="780" as="targetPoint"/>
                    </mxGeometry>
                </mxCell>
                <mxCell id="2_D3xBzRl5e0JPMFgnK--12" value="" style="html=1;points=[[0,0,0,0,5],[0,1,0,0,-5],[1,0,0,0,5],[1,1,0,0,-5]];perimeter=orthogonalPerimeter;outlineConnect=0;targetShapes=umlLifeline;portConstraint=eastwest;newEdgeStyle={&quot;curved&quot;:0,&quot;rounded&quot;:0};" parent="1" vertex="1">
                    <mxGeometry x="3372" y="760" width="10" height="110" as="geometry"/>
                </mxCell>
                <mxCell id="2_D3xBzRl5e0JPMFgnK--13" value="" style="html=1;points=[[0,0,0,0,5],[0,1,0,0,-5],[1,0,0,0,5],[1,1,0,0,-5]];perimeter=orthogonalPerimeter;outlineConnect=0;targetShapes=umlLifeline;portConstraint=eastwest;newEdgeStyle={&quot;curved&quot;:0,&quot;rounded&quot;:0};" parent="1" vertex="1">
                    <mxGeometry x="3377" y="784" width="10" height="40" as="geometry"/>
                </mxCell>
                <mxCell id="2_D3xBzRl5e0JPMFgnK--14" value="" style="html=1;align=left;spacingLeft=2;endArrow=block;rounded=0;edgeStyle=orthogonalEdgeStyle;curved=0;rounded=0;" parent="1" target="2_D3xBzRl5e0JPMFgnK--13" edge="1">
                    <mxGeometry relative="1" as="geometry">
                        <mxPoint x="3382" y="764" as="sourcePoint"/>
                        <Array as="points">
                            <mxPoint x="3452" y="764"/>
                            <mxPoint x="3452" y="794"/>
                        </Array>
                    </mxGeometry>
                </mxCell>
                <mxCell id="2_D3xBzRl5e0JPMFgnK--15" value="" style="html=1;verticalAlign=bottom;endArrow=none;dashed=1;endSize=8;curved=0;rounded=0;endFill=0;" parent="1" target="2_D3xBzRl5e0JPMFgnK--13" edge="1">
                    <mxGeometry relative="1" as="geometry">
                        <mxPoint x="3415" y="813.2799999999997" as="sourcePoint"/>
                        <mxPoint x="3387" y="814.71" as="targetPoint"/>
                    </mxGeometry>
                </mxCell>
                <mxCell id="2_D3xBzRl5e0JPMFgnK--16" value="" style="html=1;verticalAlign=bottom;endArrow=open;dashed=1;endSize=8;curved=0;rounded=0;" parent="1" target="2_D3xBzRl5e0JPMFgnK--12" edge="1">
                    <mxGeometry relative="1" as="geometry">
                        <mxPoint x="3415" y="843.2799999999997" as="sourcePoint"/>
                        <mxPoint x="3377" y="844.71" as="targetPoint"/>
                    </mxGeometry>
                </mxCell>
                <mxCell id="2_D3xBzRl5e0JPMFgnK--17" value="" style="html=1;verticalAlign=bottom;endArrow=none;dashed=1;endSize=8;curved=0;rounded=0;endFill=0;" parent="1" edge="1">
                    <mxGeometry relative="1" as="geometry">
                        <mxPoint x="3415" y="843.2799999999997" as="sourcePoint"/>
                        <mxPoint x="3415" y="813.2799999999997" as="targetPoint"/>
                    </mxGeometry>
                </mxCell>
                <mxCell id="2_D3xBzRl5e0JPMFgnK--18" value="&lt;div style=&quot;color: rgb(212, 212, 212); background-color: rgb(30, 30, 30); font-family: Consolas, &amp;quot;Courier New&amp;quot;, monospace; font-weight: normal; font-size: 14px; line-height: 19px;&quot;&gt;&lt;br&gt;&lt;/div&gt;" style="text;whiteSpace=wrap;html=1;" parent="1" vertex="1">
                    <mxGeometry x="3522" y="734" width="160" height="40" as="geometry"/>
                </mxCell>
                <mxCell id="2_D3xBzRl5e0JPMFgnK--19" value="inputStateReducer(oldState: Object, action)" style="text;html=1;align=center;verticalAlign=middle;resizable=0;points=[];autosize=1;strokeColor=none;fillColor=none;" parent="1" vertex="1">
                    <mxGeometry x="3457" y="764" width="250" height="30" as="geometry"/>
                </mxCell>
                <mxCell id="2_D3xBzRl5e0JPMFgnK--20" value="&amp;nbsp; &amp;nbsp; &amp;nbsp;&lt;span style=&quot;white-space: pre;&quot;&gt;&#9;&lt;/span&gt;&amp;nbsp;{ value = action.value, isTouched = oldState.isTouched }" style="text;html=1;align=center;verticalAlign=middle;resizable=0;points=[];autosize=1;strokeColor=none;fillColor=none;" parent="1" vertex="1">
                    <mxGeometry x="3377" y="809" width="350" height="30" as="geometry"/>
                </mxCell>
                <mxCell id="2_D3xBzRl5e0JPMFgnK--21" value="input =&amp;nbsp;{ value = action.value, isTouched = oldState.isTouched }" style="html=1;verticalAlign=bottom;endArrow=open;dashed=1;endSize=8;curved=0;rounded=0;" parent="1" edge="1">
                    <mxGeometry relative="1" as="geometry">
                        <mxPoint x="3372" y="853.6300000000001" as="sourcePoint"/>
                        <mxPoint x="2662" y="853.6300000000001" as="targetPoint"/>
                    </mxGeometry>
                </mxCell>
                <mxCell id="2_D3xBzRl5e0JPMFgnK--22" value="" style="html=1;points=[[0,0,0,0,5],[0,1,0,0,-5],[1,0,0,0,5],[1,1,0,0,-5]];perimeter=orthogonalPerimeter;outlineConnect=0;targetShapes=umlLifeline;portConstraint=eastwest;newEdgeStyle={&quot;curved&quot;:0,&quot;rounded&quot;:0};" parent="1" vertex="1">
                    <mxGeometry x="3042" y="894" width="10" height="80" as="geometry"/>
                </mxCell>
                <mxCell id="2_D3xBzRl5e0JPMFgnK--23" value="valdierung( type , input.value) : {status , message}" style="html=1;verticalAlign=bottom;endArrow=block;curved=0;rounded=0;" parent="1" target="2_D3xBzRl5e0JPMFgnK--22" edge="1">
                    <mxGeometry width="80" relative="1" as="geometry">
                        <mxPoint x="2662" y="910" as="sourcePoint"/>
                        <mxPoint x="2742" y="910" as="targetPoint"/>
                    </mxGeometry>
                </mxCell>
                <mxCell id="2_D3xBzRl5e0JPMFgnK--24" value="enteredInputIsValid = status :Boolean, message = message : String" style="html=1;verticalAlign=bottom;endArrow=open;dashed=1;endSize=8;curved=0;rounded=0;" parent="1" edge="1">
                    <mxGeometry relative="1" as="geometry">
                        <mxPoint x="3042" y="940" as="sourcePoint"/>
                        <mxPoint x="2662" y="940" as="targetPoint"/>
                    </mxGeometry>
                </mxCell>
                <mxCell id="2_D3xBzRl5e0JPMFgnK--25" value="useInput_Inner_stateChange" style="shape=umlFrame;whiteSpace=wrap;html=1;pointerEvents=0;width=170;height=27;" parent="1" vertex="1">
                    <mxGeometry x="2452" y="974" width="410" height="61.25" as="geometry"/>
                </mxCell>
                <mxCell id="2_D3xBzRl5e0JPMFgnK--26" value="" style="html=1;verticalAlign=bottom;endArrow=none;dashed=1;endSize=8;curved=0;rounded=0;entryX=-0.006;entryY=0.461;entryDx=0;entryDy=0;entryPerimeter=0;endFill=0;" parent="1" edge="1">
                    <mxGeometry relative="1" as="geometry">
                        <mxPoint x="3462" y="1086" as="sourcePoint"/>
                        <mxPoint x="2191.2300000000014" y="1086.33" as="targetPoint"/>
                    </mxGeometry>
                </mxCell>
                <mxCell id="2_D3xBzRl5e0JPMFgnK--27" value="&lt;span style=&quot;font-family: Helvetica; font-size: 11px; font-style: normal; font-variant-ligatures: normal; font-variant-caps: normal; font-weight: 400; letter-spacing: normal; orphans: 2; text-align: center; text-indent: 0px; text-transform: none; widows: 2; word-spacing: 0px; -webkit-text-stroke-width: 0px; text-decoration-thickness: initial; text-decoration-style: initial; text-decoration-color: initial; float: none; display: inline !important;&quot;&gt;&lt;font style=&quot;&quot; color=&quot;#ffffff&quot;&gt;[ inputOnBlurHandler ]&lt;/font&gt;&lt;/span&gt;" style="text;whiteSpace=wrap;html=1;" parent="1" vertex="1">
                    <mxGeometry x="2342" y="1105" width="150" height="40" as="geometry"/>
                </mxCell>
                <mxCell id="2_D3xBzRl5e0JPMFgnK--28" value="dispatch(action = {type: &quot;BLUR&quot;})" style="html=1;verticalAlign=bottom;endArrow=block;curved=0;rounded=0;entryX=0.467;entryY=0.203;entryDx=0;entryDy=0;entryPerimeter=0;" parent="1" edge="1">
                    <mxGeometry width="80" relative="1" as="geometry">
                        <mxPoint x="2662" y="1129.4099999999999" as="sourcePoint"/>
                        <mxPoint x="3372" y="1129.4099999999999" as="targetPoint"/>
                    </mxGeometry>
                </mxCell>
                <mxCell id="2_D3xBzRl5e0JPMFgnK--29" value="" style="html=1;points=[[0,0,0,0,5],[0,1,0,0,-5],[1,0,0,0,5],[1,1,0,0,-5]];perimeter=orthogonalPerimeter;outlineConnect=0;targetShapes=umlLifeline;portConstraint=eastwest;newEdgeStyle={&quot;curved&quot;:0,&quot;rounded&quot;:0};" parent="1" vertex="1">
                    <mxGeometry x="3372" y="1115" width="10" height="110" as="geometry"/>
                </mxCell>
                <mxCell id="2_D3xBzRl5e0JPMFgnK--30" value="" style="html=1;align=left;spacingLeft=2;endArrow=block;rounded=0;edgeStyle=orthogonalEdgeStyle;curved=0;rounded=0;" parent="1" edge="1">
                    <mxGeometry relative="1" as="geometry">
                        <mxPoint x="3382" y="1129" as="sourcePoint"/>
                        <Array as="points">
                            <mxPoint x="3452" y="1129"/>
                            <mxPoint x="3452" y="1159"/>
                        </Array>
                        <mxPoint x="3387" y="1159" as="targetPoint"/>
                    </mxGeometry>
                </mxCell>
                <mxCell id="2_D3xBzRl5e0JPMFgnK--31" value="" style="html=1;points=[[0,0,0,0,5],[0,1,0,0,-5],[1,0,0,0,5],[1,1,0,0,-5]];perimeter=orthogonalPerimeter;outlineConnect=0;targetShapes=umlLifeline;portConstraint=eastwest;newEdgeStyle={&quot;curved&quot;:0,&quot;rounded&quot;:0};" parent="1" vertex="1">
                    <mxGeometry x="3377" y="1145" width="10" height="40" as="geometry"/>
                </mxCell>
                <mxCell id="2_D3xBzRl5e0JPMFgnK--32" value="inputStateReducer(oldState: Object, action)" style="text;html=1;align=center;verticalAlign=middle;resizable=0;points=[];autosize=1;strokeColor=none;fillColor=none;" parent="1" vertex="1">
                    <mxGeometry x="3457" y="1125" width="250" height="30" as="geometry"/>
                </mxCell>
                <mxCell id="2_D3xBzRl5e0JPMFgnK--33" value="&amp;nbsp; &amp;nbsp; &amp;nbsp;&lt;span style=&quot;white-space: pre;&quot;&gt;&#9;&lt;/span&gt;&amp;nbsp;{ value = oldState.value, isTouched = true }" style="text;html=1;align=center;verticalAlign=middle;resizable=0;points=[];autosize=1;strokeColor=none;fillColor=none;" parent="1" vertex="1">
                    <mxGeometry x="3382" y="1170" width="280" height="30" as="geometry"/>
                </mxCell>
                <mxCell id="2_D3xBzRl5e0JPMFgnK--34" value="" style="html=1;verticalAlign=bottom;endArrow=none;dashed=1;endSize=8;curved=0;rounded=0;endFill=0;" parent="1" edge="1">
                    <mxGeometry relative="1" as="geometry">
                        <mxPoint x="3415" y="1170.2799999999997" as="sourcePoint"/>
                        <mxPoint x="3387" y="1170" as="targetPoint"/>
                    </mxGeometry>
                </mxCell>
                <mxCell id="2_D3xBzRl5e0JPMFgnK--35" value="" style="html=1;verticalAlign=bottom;endArrow=open;dashed=1;endSize=8;curved=0;rounded=0;" parent="1" edge="1">
                    <mxGeometry relative="1" as="geometry">
                        <mxPoint x="3415" y="1200.2799999999997" as="sourcePoint"/>
                        <mxPoint x="3382" y="1200" as="targetPoint"/>
                    </mxGeometry>
                </mxCell>
                <mxCell id="2_D3xBzRl5e0JPMFgnK--36" value="" style="html=1;verticalAlign=bottom;endArrow=none;dashed=1;endSize=8;curved=0;rounded=0;endFill=0;" parent="1" edge="1">
                    <mxGeometry relative="1" as="geometry">
                        <mxPoint x="3415" y="1200.2799999999997" as="sourcePoint"/>
                        <mxPoint x="3415" y="1170.2799999999997" as="targetPoint"/>
                    </mxGeometry>
                </mxCell>
                <mxCell id="2_D3xBzRl5e0JPMFgnK--37" value="input =&amp;nbsp;{ value = oldState.value, isTouched = true}" style="html=1;verticalAlign=bottom;endArrow=open;dashed=1;endSize=8;curved=0;rounded=0;" parent="1" edge="1">
                    <mxGeometry relative="1" as="geometry">
                        <mxPoint x="3372" y="1217" as="sourcePoint"/>
                        <mxPoint x="2662" y="1217" as="targetPoint"/>
                    </mxGeometry>
                </mxCell>
                <mxCell id="2_D3xBzRl5e0JPMFgnK--38" value="useInput_Inner_stateChange" style="shape=umlFrame;whiteSpace=wrap;html=1;pointerEvents=0;width=170;height=27;" parent="1" vertex="1">
                    <mxGeometry x="2452" y="1240" width="410" height="61.25" as="geometry"/>
                </mxCell>
                <mxCell id="2_D3xBzRl5e0JPMFgnK--39" value="&lt;font style=&quot;font-size: 9px;&quot;&gt;&lt;font style=&quot;border-color: var(--border-color); font-size: 9px;&quot;&gt;{ enteredInput = input.value: String,&lt;br&gt;&amp;nbsp;message : String ,&amp;nbsp;&lt;br&gt;&lt;font style=&quot;border-color: var(--border-color); font-size: 9px;&quot;&gt;inputClasses,&amp;nbsp;&lt;/font&gt;&lt;font style=&quot;border-color: var(--border-color); background-color: initial; font-size: 9px;&quot;&gt;hasError,&amp;nbsp;&lt;br&gt;&lt;/font&gt;inputChangeHandler : Function ,&lt;br&gt;&amp;nbsp;&lt;/font&gt;inputOnBlurHandler : Function} : Object&lt;/font&gt;" style="text;html=1;align=center;verticalAlign=middle;resizable=0;points=[];autosize=1;strokeColor=none;fillColor=none;" parent="1" vertex="1">
                    <mxGeometry x="2402" y="1380" width="180" height="90" as="geometry"/>
                </mxCell>
                <mxCell id="2_D3xBzRl5e0JPMFgnK--40" value="" style="html=1;verticalAlign=bottom;endArrow=open;dashed=1;endSize=8;curved=0;rounded=0;" parent="1" target="2_D3xBzRl5e0JPMFgnK--2" edge="1">
                    <mxGeometry relative="1" as="geometry">
                        <mxPoint x="2652" y="1460" as="sourcePoint"/>
                        <mxPoint x="2572" y="1460" as="targetPoint"/>
                    </mxGeometry>
                </mxCell>
            </root>
        </mxGraphModel>
    </diagram>
</mxfile>